<svg width="14" height="14" viewBox="0 0 14 14" fill="none" xmlns="http://www.w3.org/2000/svg">
<path d="M13.5165 7.782C13.6617 7.70925 13.7837 7.59756 13.869 7.45941C13.9543 7.32126 13.9995 7.16211 13.9995 6.99975C13.9995 6.83739 13.9543 6.67824 13.869 6.54009C13.7837 6.40194 13.6617 6.29024 13.5165 6.2175L1.26653 0.0924887C1.11464 0.0164894 0.94391 -0.0136624 0.775176 0.00571129C0.606443 0.025085 0.446995 0.0931468 0.316283 0.201594C0.185572 0.310041 0.0892478 0.454185 0.0390599 0.616443C-0.011128 0.7787 -0.0130076 0.952057 0.033648 1.11537L1.28402 5.49037C1.33632 5.67322 1.44678 5.83406 1.59866 5.94852C1.75055 6.06299 1.93559 6.12485 2.12577 6.12475L6.12541 6.12475C6.35747 6.12475 6.58003 6.21693 6.74412 6.38103C6.90822 6.54512 7.00041 6.76768 7.00041 6.99975C7.00041 7.23181 6.90822 7.45437 6.74412 7.61847C6.58003 7.78256 6.35747 7.87475 6.1254 7.87475L2.12577 7.87475C1.93559 7.87464 1.75055 7.93651 1.59866 8.05097C1.44678 8.16544 1.33632 8.32627 1.28402 8.50912L0.034522 12.8841C-0.0122262 13.0474 -0.0104581 13.2207 0.0396105 13.383C0.0896792 13.5453 0.185885 13.6895 0.316495 13.798C0.447104 13.9065 0.606472 13.9747 0.775165 13.9942C0.943858 14.0137 1.11459 13.9837 1.26652 13.9079L13.5165 7.782Z" fill="#86BEAA"/>
</svg>
