<svg width="23" height="20" viewBox="0 0 23 20" fill="none" xmlns="http://www.w3.org/2000/svg">
<path d="M9.68028 1.74745L1.03865 16.174C0.860477 16.4825 0.766203 16.8323 0.765205 17.1886C0.764208 17.5449 0.856521 17.8953 1.03296 18.2048C1.2094 18.5144 1.46382 18.7723 1.7709 18.953C2.07798 19.1337 2.42702 19.2308 2.7833 19.2348H20.0666C20.4228 19.2308 20.7719 19.1337 21.079 18.953C21.386 18.7723 21.6405 18.5144 21.8169 18.2048C21.9933 17.8953 22.0856 17.5449 22.0847 17.1886C22.0837 16.8323 21.9894 16.4825 21.8112 16.174L13.1696 1.74745C12.9877 1.4476 12.7316 1.19969 12.426 1.02764C12.1204 0.855585 11.7756 0.765197 11.4249 0.765197C11.0742 0.765197 10.7294 0.855585 10.4238 1.02764C10.1183 1.19969 9.86216 1.4476 9.68028 1.74745Z" stroke="white" stroke-width="1.5" stroke-linecap="round" stroke-linejoin="round"/>
<path d="M11.4252 6.99161V11.0727" stroke="white" stroke-width="1.5" stroke-linecap="round" stroke-linejoin="round"/>
<path d="M11.4252 15.1537H11.4354" stroke="white" stroke-width="1.5" stroke-linecap="round" stroke-linejoin="round"/>
</svg>
