<svg width="54" height="172" viewBox="0 0 54 172" fill="none" xmlns="http://www.w3.org/2000/svg">
<g clip-path="url(#clip0_34_1848)">
<path d="M0 0H53.2676V172.014H0V0Z" fill="#86BEAA"/>
<path d="M20.1188 154.173V152.163L26.8947 148.392H20.1188V146.485H30.385V148.494L23.6091 152.266H30.385V154.173H20.1188ZM30.0047 142.927C29.6844 143.482 29.2108 143.933 28.6409 144.225C28.0638 144.523 27.4135 144.673 26.69 144.673C25.9664 144.673 25.3161 144.523 24.7391 144.225C24.1691 143.933 23.6956 143.482 23.3753 142.927C23.0431 142.361 22.8766 141.69 22.8766 140.916C22.8766 140.144 23.0431 139.474 23.3753 138.907C23.6961 138.352 24.1695 137.901 24.7391 137.608C25.3161 137.31 25.9674 137.161 26.69 137.161C27.4145 137.161 28.0638 137.31 28.6409 137.608C29.2107 137.901 29.6841 138.352 30.0047 138.907C30.3358 139.474 30.5024 140.144 30.5024 140.916C30.5034 141.689 30.3358 142.36 30.0047 142.927ZM28.2956 139.566C27.8591 139.234 27.3252 139.067 26.689 139.067C26.0527 139.067 25.5179 139.234 25.0823 139.566C24.6468 139.9 24.43 140.349 24.43 140.916C24.43 141.484 24.6478 141.934 25.0823 142.268C25.5179 142.599 26.0527 142.765 26.689 142.765C27.3252 142.765 27.8591 142.599 28.2956 142.268C28.7312 141.934 28.9469 141.485 28.9469 140.916C28.9479 140.349 28.7312 139.9 28.2956 139.566ZM22.993 135.513V133.694H24.1822C23.7506 133.41 23.4275 133.099 23.2057 132.761C22.9859 132.424 22.8756 132.027 22.8756 131.567C22.8756 131.086 23.003 130.661 23.2569 130.29C23.5118 129.918 23.8941 129.654 24.4019 129.497C23.9222 129.234 23.5479 128.904 23.28 128.508C23.0192 128.136 22.8785 127.693 22.8766 127.238C22.8766 126.554 23.0773 126.016 23.4777 125.625C23.8791 125.233 24.4381 125.038 25.1516 125.038H30.388V126.857H25.4597C24.7752 126.857 24.433 127.161 24.433 127.767C24.433 128.236 24.698 128.621 25.2248 128.918C25.7537 129.218 26.5154 129.365 27.5129 129.365H30.388V131.185H25.4597C24.7752 131.185 24.433 131.489 24.433 132.095C24.433 132.565 24.709 132.949 25.262 133.246C25.8149 133.545 26.6187 133.694 27.6745 133.694H30.388V135.513H22.993ZM21.7024 122.926C21.4766 123.151 21.1986 123.263 20.8665 123.263C20.5343 123.263 20.2563 123.151 20.0305 122.926C19.9201 122.817 19.8331 122.687 19.7751 122.543C19.7171 122.399 19.6893 122.245 19.6933 122.09C19.6933 121.757 19.8047 121.478 20.0305 121.253C20.2563 121.028 20.5343 120.916 20.8665 120.916C21.1986 120.916 21.4766 121.028 21.7024 121.253C21.9282 121.478 22.0406 121.757 22.0406 122.09C22.0406 122.423 21.9282 122.7 21.7024 122.926ZM22.993 121.18H30.385V123H22.993V121.18ZM22.993 119.122V117.303H24.1822C23.7969 117.036 23.4718 116.691 23.2278 116.291C22.9951 115.905 22.8732 115.464 22.8756 115.014C22.8756 114.33 23.0662 113.78 23.4476 113.363C23.8289 112.948 24.3819 112.74 25.1044 112.74H30.386V114.559H25.6473C25.2278 114.559 24.9177 114.655 24.7241 114.845C24.5284 115.036 24.43 115.294 24.43 115.617C24.43 115.92 24.5464 116.199 24.7823 116.453C25.0161 116.708 25.3613 116.913 25.8159 117.068C26.2705 117.225 26.8114 117.303 27.4366 117.303H30.385V119.122H22.993ZM29.9384 109.547C29.5797 110.066 29.0815 110.473 28.5014 110.72C27.9296 110.968 27.313 111.095 26.69 111.095C26.0663 111.095 25.449 110.968 24.8766 110.72C24.2956 110.471 23.8159 110.08 23.4395 109.547C23.0632 109.014 22.8745 108.346 22.8745 107.544C22.8745 106.77 23.0582 106.126 23.4255 105.607C23.7725 105.104 24.2527 104.707 24.8124 104.461C25.3523 104.221 25.9365 104.097 26.5274 104.096H27.2761V109.186C27.7246 109.166 28.117 109.003 28.4482 108.695C28.7814 108.386 28.9479 107.968 28.9479 107.442C28.9479 107.03 28.8546 106.685 28.67 106.407C28.4833 106.128 28.1953 105.876 27.8039 105.651L28.3478 104.183C29.0403 104.487 29.5762 104.91 29.9455 105.453C30.3178 105.996 30.5034 106.693 30.5034 107.544C30.5034 108.346 30.3148 109.014 29.9384 109.547ZM25.839 105.959C25.4275 106.047 25.0904 106.221 24.8264 106.481C24.5635 106.74 24.43 107.093 24.43 107.545C24.43 107.975 24.5675 108.332 24.8405 108.616C25.1134 108.899 25.4466 109.076 25.838 109.143V105.959H25.839ZM29.9384 101.264C29.5621 101.797 29.0834 102.189 28.5014 102.438C27.9291 102.685 27.3124 102.813 26.689 102.813C26.0656 102.813 25.4488 102.685 24.8766 102.438C24.2956 102.189 23.8159 101.797 23.4395 101.264C23.0632 100.731 22.8745 100.064 22.8745 99.2616C22.8745 98.4886 23.0582 97.8442 23.4255 97.3242C23.7726 96.8213 24.2528 96.4251 24.8124 96.1798C25.3523 95.9394 25.9364 95.8146 26.5274 95.8134H27.2761V100.905C27.7136 100.889 28.1303 100.714 28.4482 100.413C28.7814 100.105 28.9479 99.6862 28.9479 99.1592C28.9479 98.7476 28.8546 98.4033 28.67 98.1242C28.4833 97.8462 28.1953 97.5942 27.8039 97.3683L28.3478 95.9008C29.0403 96.2039 29.5762 96.6275 29.9455 97.1706C30.3178 97.7137 30.5034 98.4093 30.5034 99.2616C30.5034 100.064 30.3148 100.731 29.9384 101.264ZM25.839 97.6775C25.4275 97.7659 25.0904 97.9395 24.8264 98.1985C24.5635 98.4575 24.43 98.8119 24.43 99.2626C24.43 99.6932 24.5675 100.05 24.8405 100.334C25.1134 100.617 25.4466 100.793 25.838 100.862V97.6775H25.839ZM35.6064 16.9908L30.8075 32.0171H27.5299L24.9368 22.298L22.3437 32.0171H19.0641L14.2662 16.9908H17.9924L20.6748 27.3061L23.2077 16.9908H26.6649L29.1978 27.3061L31.8813 16.9908H35.6064ZM38.1132 27.1867C39.5443 27.1867 40.617 28.2588 40.617 29.6912C40.617 31.1217 39.5443 32.1958 38.1132 32.1958C36.6832 32.1958 35.6094 31.1217 35.6094 29.6912C35.6084 28.2588 36.6832 27.1867 38.1132 27.1867Z" fill="white"/>
</g>
<defs>
<clipPath id="clip0_34_1848">
<rect width="53.0625" height="171.344" fill="white" transform="scale(1.00383)"/>
</clipPath>
</defs>
</svg>
