<svg width="64" height="64" viewBox="0 0 64 64" fill="none" xmlns="http://www.w3.org/2000/svg">
<path d="M39.557 37.6239C39.1805 37.591 38.8729 37.4322 38.6343 37.1479C38.3959 36.8638 38.2912 36.5543 38.3205 36.2196L39.1274 26.996L22.2052 41.1954C21.9096 41.4435 21.584 41.552 21.2284 41.5209C20.8728 41.4898 20.571 41.3264 20.3229 41.0308C20.0748 40.7351 19.9663 40.4094 19.9974 40.0539C20.0285 39.6983 20.1919 39.3965 20.4876 39.1484L37.4098 24.949L28.1234 24.1366C27.747 24.1036 27.4499 23.9459 27.2323 23.6634C27.0146 23.381 26.9223 23.0515 26.9552 22.675C27.0072 22.3213 27.1754 22.0251 27.4597 21.7866C27.744 21.548 28.0535 21.4434 28.3881 21.4726L40.8745 22.565C41.0835 22.5834 41.2586 22.6303 41.3995 22.7059C41.5403 22.7814 41.6682 22.8873 41.7827 23.0238C41.8973 23.1603 41.9793 23.3046 42.0293 23.4564C42.0793 23.6083 42.0951 23.7888 42.0769 23.9979L40.99 36.4215C40.957 36.798 40.804 37.1007 40.5311 37.3298C40.2581 37.5588 39.9335 37.6568 39.557 37.6239Z" fill="white"/>
</svg>
